<mxfile host="app.diagrams.net" agent="Mozilla/5.0 (Windows NT 10.0; Win64; x64) AppleWebKit/537.36 (KHTML, like Gecko) Chrome/136.0.0.0 Safari/537.36" scale="1" border="0" version="27.0.6">
  <diagram name="Página-1" id="ND2Dty8mFAdaBYOgW04u">
    <mxGraphModel dx="1310" dy="708" grid="1" gridSize="10" guides="1" tooltips="1" connect="1" arrows="1" fold="1" page="1" pageScale="1" pageWidth="827" pageHeight="1169" background="#FFFFFF" math="0" shadow="0">
      <root>
        <mxCell id="0" />
        <mxCell id="1" parent="0" />
        <mxCell id="Yk0pzJo4hn3IgyYkeIWP-20" value="" style="html=1;align=center;verticalAlign=middle;rounded=0;absoluteArcSize=1;arcSize=10;dashed=0;whiteSpace=wrap;fillOpacity=0;fillColor=none;strokeWidth=2;" parent="1" vertex="1">
          <mxGeometry x="170" y="30" width="480" height="800" as="geometry" />
        </mxCell>
        <mxCell id="Yk0pzJo4hn3IgyYkeIWP-22" value="Gestión de Guardias" style="text;html=1;align=center;verticalAlign=middle;whiteSpace=wrap;rounded=0;" parent="Yk0pzJo4hn3IgyYkeIWP-20" vertex="1">
          <mxGeometry width="480" height="20" as="geometry" />
        </mxCell>
        <mxCell id="NVA4j9vUab-9wMmzX4WP-13" value="Login" style="ellipse;whiteSpace=wrap;html=1;rounded=0;" parent="Yk0pzJo4hn3IgyYkeIWP-20" vertex="1">
          <mxGeometry x="176.25918032786885" y="20" width="125.90163934426229" height="60" as="geometry" />
        </mxCell>
        <mxCell id="NVA4j9vUab-9wMmzX4WP-14" value="Registrar Ausencias" style="ellipse;whiteSpace=wrap;html=1;rounded=0;" parent="Yk0pzJo4hn3IgyYkeIWP-20" vertex="1">
          <mxGeometry x="174.09918032786885" y="100" width="125.90163934426229" height="50" as="geometry" />
        </mxCell>
        <mxCell id="NVA4j9vUab-9wMmzX4WP-15" value="Registrar Ausencia Propia" style="ellipse;whiteSpace=wrap;html=1;rounded=0;" parent="Yk0pzJo4hn3IgyYkeIWP-20" vertex="1">
          <mxGeometry x="177.04918032786884" y="160" width="125.90163934426229" height="50" as="geometry" />
        </mxCell>
        <mxCell id="NVA4j9vUab-9wMmzX4WP-21" value="Eliminar Ausencia Profesor" style="ellipse;whiteSpace=wrap;html=1;rounded=0;" parent="Yk0pzJo4hn3IgyYkeIWP-20" vertex="1">
          <mxGeometry x="176.2622950819672" y="270" width="125.90163934426229" height="50" as="geometry" />
        </mxCell>
        <mxCell id="NVA4j9vUab-9wMmzX4WP-22" value="Eliminar Ausencia Propia" style="ellipse;whiteSpace=wrap;html=1;rounded=0;" parent="Yk0pzJo4hn3IgyYkeIWP-20" vertex="1">
          <mxGeometry x="176.2622950819672" y="330" width="125.90163934426229" height="50" as="geometry" />
        </mxCell>
        <mxCell id="Yk0pzJo4hn3IgyYkeIWP-11" value="Consultar listado todas las ausencias" style="ellipse;whiteSpace=wrap;html=1;rounded=0;" parent="Yk0pzJo4hn3IgyYkeIWP-20" vertex="1">
          <mxGeometry x="160" y="400" width="142.16" height="60" as="geometry" />
        </mxCell>
        <mxCell id="NVA4j9vUab-9wMmzX4WP-18" value="Consultar guardias" style="ellipse;whiteSpace=wrap;html=1;rounded=0;" parent="Yk0pzJo4hn3IgyYkeIWP-20" vertex="1">
          <mxGeometry x="176.2622950819672" y="490" width="125.90163934426229" height="50" as="geometry" />
        </mxCell>
        <mxCell id="NVA4j9vUab-9wMmzX4WP-19" value="Consultar historial de Guardias" style="ellipse;whiteSpace=wrap;html=1;rounded=0;" parent="Yk0pzJo4hn3IgyYkeIWP-20" vertex="1">
          <mxGeometry x="170" y="570" width="132.16" height="60" as="geometry" />
        </mxCell>
        <mxCell id="NVA4j9vUab-9wMmzX4WP-20" value="Asignarse o designarse una guardia" style="ellipse;whiteSpace=wrap;html=1;rounded=0;" parent="Yk0pzJo4hn3IgyYkeIWP-20" vertex="1">
          <mxGeometry x="176.2622950819672" y="660" width="125.90163934426229" height="50" as="geometry" />
        </mxCell>
        <mxCell id="Yk0pzJo4hn3IgyYkeIWP-7" value="Cerrar Sesion" style="ellipse;whiteSpace=wrap;html=1;rounded=0;" parent="Yk0pzJo4hn3IgyYkeIWP-20" vertex="1">
          <mxGeometry x="176.2622950819672" y="740" width="125.90163934426229" height="50" as="geometry" />
        </mxCell>
        <mxCell id="NVA4j9vUab-9wMmzX4WP-25" value="Modificar Tarea" style="ellipse;whiteSpace=wrap;html=1;rounded=0;" parent="Yk0pzJo4hn3IgyYkeIWP-20" vertex="1">
          <mxGeometry x="307.672131147541" y="250" width="70.81967213114754" height="40" as="geometry" />
        </mxCell>
        <mxCell id="NVA4j9vUab-9wMmzX4WP-26" value="Eliminar Tarea" style="ellipse;whiteSpace=wrap;html=1;rounded=0;" parent="Yk0pzJo4hn3IgyYkeIWP-20" vertex="1">
          <mxGeometry x="284.07" y="200" width="65.93" height="40" as="geometry" />
        </mxCell>
        <mxCell id="Yk0pzJo4hn3IgyYkeIWP-10" value="Filtrar por fecha y/o profesor" style="ellipse;whiteSpace=wrap;html=1;rounded=0;" parent="Yk0pzJo4hn3IgyYkeIWP-20" vertex="1">
          <mxGeometry x="307.67" y="360" width="80" height="50" as="geometry" />
        </mxCell>
        <mxCell id="Yk0pzJo4hn3IgyYkeIWP-13" value="extend" style="html=1;verticalAlign=bottom;endArrow=open;dashed=1;endSize=8;curved=0;rounded=0;exitX=0.5;exitY=1;exitDx=0;exitDy=0;entryX=1;entryY=0.5;entryDx=0;entryDy=0;" parent="Yk0pzJo4hn3IgyYkeIWP-20" source="Yk0pzJo4hn3IgyYkeIWP-10" target="Yk0pzJo4hn3IgyYkeIWP-11" edge="1">
          <mxGeometry x="-0.1338" y="8" relative="1" as="geometry">
            <mxPoint x="166.0327868852459" y="703" as="sourcePoint" />
            <mxPoint x="195.93442622950818" y="673" as="targetPoint" />
            <mxPoint as="offset" />
          </mxGeometry>
        </mxCell>
        <mxCell id="f9BXiuHA7nPkaAi9c7Gh-1" value="&lt;font&gt;Include&lt;/font&gt;" style="html=1;verticalAlign=bottom;endArrow=open;dashed=1;endSize=8;curved=0;rounded=0;exitX=0.5;exitY=1;exitDx=0;exitDy=0;entryX=0.518;entryY=0.02;entryDx=0;entryDy=0;entryPerimeter=0;" edge="1" parent="Yk0pzJo4hn3IgyYkeIWP-20" source="NVA4j9vUab-9wMmzX4WP-13" target="NVA4j9vUab-9wMmzX4WP-14">
          <mxGeometry x="0.9147" y="21" relative="1" as="geometry">
            <mxPoint x="293" y="80" as="sourcePoint" />
            <mxPoint x="190" y="105" as="targetPoint" />
            <mxPoint as="offset" />
          </mxGeometry>
        </mxCell>
        <mxCell id="f9BXiuHA7nPkaAi9c7Gh-2" value="" style="endArrow=none;startArrow=none;endFill=0;startFill=0;endSize=8;html=1;verticalAlign=bottom;labelBackgroundColor=none;strokeWidth=1;rounded=0;entryX=0;entryY=0.5;entryDx=0;entryDy=0;" edge="1" parent="Yk0pzJo4hn3IgyYkeIWP-20" target="NVA4j9vUab-9wMmzX4WP-22">
          <mxGeometry width="160" relative="1" as="geometry">
            <mxPoint x="-19.74000000000001" y="288" as="sourcePoint" />
            <mxPoint x="176.26" y="302" as="targetPoint" />
          </mxGeometry>
        </mxCell>
        <object label="Directivo" Profesor="" id="NVA4j9vUab-9wMmzX4WP-1">
          <mxCell style="shape=umlActor;verticalLabelPosition=bottom;verticalAlign=top;html=1;outlineConnect=0;rounded=0;" parent="1" vertex="1">
            <mxGeometry x="120" y="280" width="30" height="60" as="geometry" />
          </mxCell>
        </object>
        <mxCell id="NVA4j9vUab-9wMmzX4WP-2" value="Profesor" style="shape=umlActor;verticalLabelPosition=bottom;verticalAlign=top;html=1;outlineConnect=0;rounded=0;" parent="1" vertex="1">
          <mxGeometry x="670" y="280" width="30" height="60" as="geometry" />
        </mxCell>
        <mxCell id="NVA4j9vUab-9wMmzX4WP-24" value="Añadir Tarea" style="ellipse;whiteSpace=wrap;html=1;rounded=0;" parent="1" vertex="1">
          <mxGeometry x="230" y="260" width="90" height="35" as="geometry" />
        </mxCell>
        <mxCell id="NVA4j9vUab-9wMmzX4WP-27" value="Generar pdf Guardias" style="ellipse;whiteSpace=wrap;html=1;rounded=0;" parent="1" vertex="1">
          <mxGeometry x="510" y="590" width="100" height="40" as="geometry" />
        </mxCell>
        <mxCell id="NVA4j9vUab-9wMmzX4WP-28" value="Generar pdf total horas guardias" style="ellipse;whiteSpace=wrap;html=1;rounded=0;" parent="1" vertex="1">
          <mxGeometry x="190" y="670" width="110" height="45" as="geometry" />
        </mxCell>
        <mxCell id="NVA4j9vUab-9wMmzX4WP-29" value="extend" style="html=1;verticalAlign=bottom;endArrow=open;dashed=1;endSize=8;curved=0;rounded=0;exitX=1;exitY=0.5;exitDx=0;exitDy=0;entryX=0;entryY=1;entryDx=0;entryDy=0;" parent="1" source="NVA4j9vUab-9wMmzX4WP-28" target="NVA4j9vUab-9wMmzX4WP-19" edge="1">
          <mxGeometry x="-0.4932" y="-1" relative="1" as="geometry">
            <mxPoint x="570" y="530" as="sourcePoint" />
            <mxPoint x="490" y="530" as="targetPoint" />
            <mxPoint y="-1" as="offset" />
          </mxGeometry>
        </mxCell>
        <mxCell id="NVA4j9vUab-9wMmzX4WP-30" value="extend" style="html=1;verticalAlign=bottom;endArrow=open;dashed=1;endSize=8;curved=0;rounded=0;exitX=0.29;exitY=0;exitDx=0;exitDy=0;entryX=1;entryY=1;entryDx=0;entryDy=0;exitPerimeter=0;" parent="1" source="NVA4j9vUab-9wMmzX4WP-27" target="NVA4j9vUab-9wMmzX4WP-18" edge="1">
          <mxGeometry x="-0.2548" relative="1" as="geometry">
            <mxPoint x="304" y="471" as="sourcePoint" />
            <mxPoint x="348" y="593" as="targetPoint" />
            <mxPoint as="offset" />
          </mxGeometry>
        </mxCell>
        <mxCell id="NVA4j9vUab-9wMmzX4WP-36" value="" style="endArrow=none;startArrow=none;endFill=0;startFill=0;endSize=8;html=1;verticalAlign=bottom;labelBackgroundColor=none;strokeWidth=1;rounded=0;entryX=0;entryY=1;entryDx=0;entryDy=0;" parent="1" source="NVA4j9vUab-9wMmzX4WP-1" target="NVA4j9vUab-9wMmzX4WP-13" edge="1">
          <mxGeometry width="160" relative="1" as="geometry">
            <mxPoint x="140" y="277" as="sourcePoint" />
            <mxPoint x="300" y="277" as="targetPoint" />
          </mxGeometry>
        </mxCell>
        <mxCell id="NVA4j9vUab-9wMmzX4WP-37" value="" style="endArrow=none;startArrow=none;endFill=0;startFill=0;endSize=8;html=1;verticalAlign=bottom;labelBackgroundColor=none;strokeWidth=1;rounded=0;entryX=1;entryY=1;entryDx=0;entryDy=0;" parent="1" source="NVA4j9vUab-9wMmzX4WP-2" target="NVA4j9vUab-9wMmzX4WP-13" edge="1">
          <mxGeometry width="160" relative="1" as="geometry">
            <mxPoint x="644" y="280" as="sourcePoint" />
            <mxPoint x="827" y="78" as="targetPoint" />
          </mxGeometry>
        </mxCell>
        <mxCell id="NVA4j9vUab-9wMmzX4WP-38" value="" style="endArrow=none;startArrow=none;endFill=0;startFill=0;endSize=8;html=1;verticalAlign=bottom;labelBackgroundColor=none;strokeWidth=1;rounded=0;entryX=0;entryY=0.5;entryDx=0;entryDy=0;" parent="1" source="NVA4j9vUab-9wMmzX4WP-1" target="NVA4j9vUab-9wMmzX4WP-14" edge="1">
          <mxGeometry width="160" relative="1" as="geometry">
            <mxPoint x="170" y="313" as="sourcePoint" />
            <mxPoint x="353" y="111" as="targetPoint" />
          </mxGeometry>
        </mxCell>
        <mxCell id="NVA4j9vUab-9wMmzX4WP-39" value="" style="endArrow=none;startArrow=none;endFill=0;startFill=0;endSize=8;html=1;verticalAlign=bottom;labelBackgroundColor=none;strokeWidth=1;rounded=0;entryX=0;entryY=0.5;entryDx=0;entryDy=0;" parent="1" source="NVA4j9vUab-9wMmzX4WP-1" target="NVA4j9vUab-9wMmzX4WP-15" edge="1">
          <mxGeometry width="160" relative="1" as="geometry">
            <mxPoint x="180" y="323" as="sourcePoint" />
            <mxPoint x="363" y="121" as="targetPoint" />
          </mxGeometry>
        </mxCell>
        <mxCell id="NVA4j9vUab-9wMmzX4WP-40" value="" style="endArrow=none;startArrow=none;endFill=0;startFill=0;endSize=8;html=1;verticalAlign=bottom;labelBackgroundColor=none;strokeWidth=1;rounded=0;entryX=1;entryY=0.5;entryDx=0;entryDy=0;" parent="1" source="NVA4j9vUab-9wMmzX4WP-2" target="NVA4j9vUab-9wMmzX4WP-15" edge="1">
          <mxGeometry width="160" relative="1" as="geometry">
            <mxPoint x="680" y="280" as="sourcePoint" />
            <mxPoint x="373" y="131" as="targetPoint" />
          </mxGeometry>
        </mxCell>
        <mxCell id="NVA4j9vUab-9wMmzX4WP-41" value="" style="endArrow=none;startArrow=none;endFill=0;startFill=0;endSize=8;html=1;verticalAlign=bottom;labelBackgroundColor=none;strokeWidth=1;rounded=0;entryX=0;entryY=0.5;entryDx=0;entryDy=0;" parent="1" source="NVA4j9vUab-9wMmzX4WP-1" target="NVA4j9vUab-9wMmzX4WP-21" edge="1">
          <mxGeometry width="160" relative="1" as="geometry">
            <mxPoint x="200" y="343" as="sourcePoint" />
            <mxPoint x="383" y="141" as="targetPoint" />
          </mxGeometry>
        </mxCell>
        <mxCell id="NVA4j9vUab-9wMmzX4WP-42" value="" style="endArrow=none;startArrow=none;endFill=0;startFill=0;endSize=8;html=1;verticalAlign=bottom;labelBackgroundColor=none;strokeWidth=1;rounded=0;entryX=1;entryY=0.5;entryDx=0;entryDy=0;" parent="1" source="NVA4j9vUab-9wMmzX4WP-2" target="NVA4j9vUab-9wMmzX4WP-22" edge="1">
          <mxGeometry width="160" relative="1" as="geometry">
            <mxPoint x="210" y="353" as="sourcePoint" />
            <mxPoint x="393" y="151" as="targetPoint" />
          </mxGeometry>
        </mxCell>
        <mxCell id="NVA4j9vUab-9wMmzX4WP-43" value="" style="endArrow=none;startArrow=none;endFill=0;startFill=0;endSize=8;html=1;verticalAlign=bottom;labelBackgroundColor=none;strokeWidth=1;rounded=0;entryX=0;entryY=0.5;entryDx=0;entryDy=0;" parent="1" source="NVA4j9vUab-9wMmzX4WP-1" target="NVA4j9vUab-9wMmzX4WP-18" edge="1">
          <mxGeometry width="160" relative="1" as="geometry">
            <mxPoint x="220" y="363" as="sourcePoint" />
            <mxPoint x="403" y="161" as="targetPoint" />
          </mxGeometry>
        </mxCell>
        <mxCell id="NVA4j9vUab-9wMmzX4WP-44" value="" style="endArrow=none;startArrow=none;endFill=0;startFill=0;endSize=8;html=1;verticalAlign=bottom;labelBackgroundColor=none;strokeWidth=1;rounded=0;entryX=1;entryY=0.5;entryDx=0;entryDy=0;" parent="1" source="NVA4j9vUab-9wMmzX4WP-2" target="NVA4j9vUab-9wMmzX4WP-18" edge="1">
          <mxGeometry width="160" relative="1" as="geometry">
            <mxPoint x="230" y="373" as="sourcePoint" />
            <mxPoint x="413" y="171" as="targetPoint" />
          </mxGeometry>
        </mxCell>
        <mxCell id="NVA4j9vUab-9wMmzX4WP-46" value="" style="endArrow=none;startArrow=none;endFill=0;startFill=0;endSize=8;html=1;verticalAlign=bottom;labelBackgroundColor=none;strokeWidth=1;rounded=0;entryX=0;entryY=0.5;entryDx=0;entryDy=0;" parent="1" source="NVA4j9vUab-9wMmzX4WP-1" target="NVA4j9vUab-9wMmzX4WP-19" edge="1">
          <mxGeometry width="160" relative="1" as="geometry">
            <mxPoint x="240" y="383" as="sourcePoint" />
            <mxPoint x="423" y="181" as="targetPoint" />
            <Array as="points" />
          </mxGeometry>
        </mxCell>
        <mxCell id="NVA4j9vUab-9wMmzX4WP-47" value="" style="endArrow=none;startArrow=none;endFill=0;startFill=0;endSize=8;html=1;verticalAlign=bottom;labelBackgroundColor=none;strokeWidth=1;rounded=0;exitX=1;exitY=1;exitDx=0;exitDy=0;" parent="1" source="NVA4j9vUab-9wMmzX4WP-19" edge="1">
          <mxGeometry width="160" relative="1" as="geometry">
            <mxPoint x="250" y="393" as="sourcePoint" />
            <mxPoint x="660" y="370" as="targetPoint" />
            <Array as="points">
              <mxPoint x="660" y="653" />
            </Array>
          </mxGeometry>
        </mxCell>
        <mxCell id="Yk0pzJo4hn3IgyYkeIWP-2" value="" style="endArrow=none;startArrow=none;endFill=0;startFill=0;endSize=8;html=1;verticalAlign=bottom;labelBackgroundColor=none;strokeWidth=1;rounded=0;exitX=1;exitY=0.5;exitDx=0;exitDy=0;" parent="1" source="NVA4j9vUab-9wMmzX4WP-20" edge="1">
          <mxGeometry width="160" relative="1" as="geometry">
            <mxPoint x="467" y="517" as="sourcePoint" />
            <mxPoint x="680" y="370" as="targetPoint" />
            <Array as="points">
              <mxPoint x="680" y="715" />
            </Array>
          </mxGeometry>
        </mxCell>
        <mxCell id="Yk0pzJo4hn3IgyYkeIWP-4" value="Include" style="html=1;verticalAlign=bottom;endArrow=open;dashed=1;endSize=8;curved=0;rounded=0;exitX=0.5;exitY=1;exitDx=0;exitDy=0;entryX=1;entryY=0;entryDx=0;entryDy=0;" parent="1" source="NVA4j9vUab-9wMmzX4WP-15" target="NVA4j9vUab-9wMmzX4WP-24" edge="1">
          <mxGeometry x="0.2237" y="5" relative="1" as="geometry">
            <mxPoint x="340" y="280" as="sourcePoint" />
            <mxPoint x="388" y="263" as="targetPoint" />
            <mxPoint as="offset" />
          </mxGeometry>
        </mxCell>
        <mxCell id="Yk0pzJo4hn3IgyYkeIWP-5" value="extend" style="html=1;verticalAlign=bottom;endArrow=open;dashed=1;endSize=8;curved=0;rounded=0;exitX=0;exitY=0.5;exitDx=0;exitDy=0;entryX=1;entryY=0.5;entryDx=0;entryDy=0;" parent="1" source="NVA4j9vUab-9wMmzX4WP-26" target="NVA4j9vUab-9wMmzX4WP-24" edge="1">
          <mxGeometry x="-0.2548" relative="1" as="geometry">
            <mxPoint x="320" y="510" as="sourcePoint" />
            <mxPoint x="368" y="493" as="targetPoint" />
            <mxPoint as="offset" />
          </mxGeometry>
        </mxCell>
        <mxCell id="Yk0pzJo4hn3IgyYkeIWP-6" value="extend" style="html=1;verticalAlign=bottom;endArrow=open;dashed=1;endSize=8;curved=0;rounded=0;exitX=0;exitY=0.5;exitDx=0;exitDy=0;entryX=0.978;entryY=0.771;entryDx=0;entryDy=0;entryPerimeter=0;" parent="1" source="NVA4j9vUab-9wMmzX4WP-25" target="NVA4j9vUab-9wMmzX4WP-24" edge="1">
          <mxGeometry x="-0.2548" relative="1" as="geometry">
            <mxPoint x="330" y="520" as="sourcePoint" />
            <mxPoint x="340" y="283" as="targetPoint" />
            <mxPoint as="offset" />
          </mxGeometry>
        </mxCell>
        <mxCell id="Yk0pzJo4hn3IgyYkeIWP-12" value="" style="endArrow=none;startArrow=none;endFill=0;startFill=0;endSize=8;html=1;verticalAlign=bottom;labelBackgroundColor=none;strokeWidth=1;rounded=0;entryX=0;entryY=0.5;entryDx=0;entryDy=0;" parent="1" source="NVA4j9vUab-9wMmzX4WP-1" target="Yk0pzJo4hn3IgyYkeIWP-11" edge="1">
          <mxGeometry width="160" relative="1" as="geometry">
            <mxPoint x="160" y="341" as="sourcePoint" />
            <mxPoint x="335" y="585" as="targetPoint" />
          </mxGeometry>
        </mxCell>
        <mxCell id="Yk0pzJo4hn3IgyYkeIWP-15" value="" style="endArrow=none;startArrow=none;endFill=0;startFill=0;endSize=8;html=1;verticalAlign=bottom;labelBackgroundColor=none;strokeWidth=1;rounded=0;exitX=1;exitY=0.5;exitDx=0;exitDy=0;" parent="1" source="Yk0pzJo4hn3IgyYkeIWP-7" edge="1">
          <mxGeometry width="160" relative="1" as="geometry">
            <mxPoint x="457" y="663" as="sourcePoint" />
            <mxPoint x="700" y="370" as="targetPoint" />
            <Array as="points">
              <mxPoint x="700" y="795" />
            </Array>
          </mxGeometry>
        </mxCell>
        <mxCell id="Yk0pzJo4hn3IgyYkeIWP-17" value="" style="endArrow=none;startArrow=none;endFill=0;startFill=0;endSize=8;html=1;verticalAlign=bottom;labelBackgroundColor=none;strokeWidth=1;rounded=0;exitX=0;exitY=0.5;exitDx=0;exitDy=0;" parent="1" source="Yk0pzJo4hn3IgyYkeIWP-7" edge="1">
          <mxGeometry width="160" relative="1" as="geometry">
            <mxPoint x="477" y="683" as="sourcePoint" />
            <mxPoint x="130" y="370" as="targetPoint" />
            <Array as="points">
              <mxPoint x="130" y="795" />
            </Array>
          </mxGeometry>
        </mxCell>
      </root>
    </mxGraphModel>
  </diagram>
</mxfile>
